<svg width="25" height="25" viewBox="0 0 25 25" fill="none" xmlns="http://www.w3.org/2000/svg">
<path d="M11.6125 1.20268C11.8169 0.543361 12.7066 0.543361 12.9109 1.20268L15.2758 8.83295C15.3672 9.12781 15.6293 9.32744 15.925 9.32744H23.5778C24.2391 9.32744 24.514 10.2146 23.979 10.622L17.7878 15.3378C17.5485 15.52 17.4484 15.843 17.5398 16.1379L19.9046 23.7682C20.109 24.4275 19.3892 24.9758 18.8542 24.5683L12.663 19.8525C12.4237 19.6703 12.0997 19.6703 11.8605 19.8525L5.66923 24.5683C5.13426 24.9758 4.41445 24.4275 4.61879 23.7682L6.98364 16.1379C7.07503 15.843 6.97492 15.52 6.73567 15.3378L0.544412 10.622C0.00943546 10.2145 0.284378 9.32744 0.945645 9.32744H8.59846C8.89418 9.32744 9.15628 9.12781 9.24766 8.83295L11.6125 1.20268Z" fill="white"/>
</svg>
